<svg id="visual" viewBox="0 0 1920 1080" width="1920" height="1080" xmlns="http://www.w3.org/2000/svg" xmlns:xlink="http://www.w3.org/1999/xlink" version="1.1"><path d="M0 152L64 146.7C128 141.3 256 130.7 384 119.8C512 109 640 98 768 112.3C896 126.7 1024 166.3 1152 164.7C1280 163 1408 120 1536 112.8C1664 105.7 1792 134.3 1856 148.7L1920 163L1920 0L1856 0C1792 0 1664 0 1536 0C1408 0 1280 0 1152 0C1024 0 896 0 768 0C640 0 512 0 384 0C256 0 128 0 64 0L0 0Z" fill="#ff749e"></path><path d="M0 627L64 607.3C128 587.7 256 548.3 384 517.8C512 487.3 640 465.7 768 483.7C896 501.7 1024 559.3 1152 559.3C1280 559.3 1408 501.7 1536 476.3C1664 451 1792 458 1856 461.5L1920 465L1920 161L1856 146.7C1792 132.3 1664 103.7 1536 110.8C1408 118 1280 161 1152 162.7C1024 164.3 896 124.7 768 110.3C640 96 512 107 384 117.8C256 128.7 128 139.3 64 144.7L0 150Z" fill="#ff4e83"></path><path d="M0 833L64 811.3C128 789.7 256 746.3 384 719.3C512 692.3 640 681.7 768 685.3C896 689 1024 707 1152 716C1280 725 1408 725 1536 721.3C1664 717.7 1792 710.3 1856 706.7L1920 703L1920 463L1856 459.5C1792 456 1664 449 1536 474.3C1408 499.7 1280 557.3 1152 557.3C1024 557.3 896 499.7 768 481.7C640 463.7 512 485.3 384 515.8C256 546.3 128 585.7 64 605.3L0 625Z" fill="#ff0066"></path><path d="M0 908L64 895.5C128 883 256 858 384 834.7C512 811.3 640 789.7 768 782.3C896 775 1024 782 1152 789.2C1280 796.3 1408 803.7 1536 805.5C1664 807.3 1792 803.7 1856 801.8L1920 800L1920 701L1856 704.7C1792 708.3 1664 715.7 1536 719.3C1408 723 1280 723 1152 714C1024 705 896 687 768 683.3C640 679.7 512 690.3 384 717.3C256 744.3 128 787.7 64 809.3L0 831Z" fill="#dd005a"></path><path d="M0 1081L64 1081C128 1081 256 1081 384 1081C512 1081 640 1081 768 1081C896 1081 1024 1081 1152 1081C1280 1081 1408 1081 1536 1081C1664 1081 1792 1081 1856 1081L1920 1081L1920 798L1856 799.8C1792 801.7 1664 805.3 1536 803.5C1408 801.7 1280 794.3 1152 787.2C1024 780 896 773 768 780.3C640 787.7 512 809.3 384 832.7C256 856 128 881 64 893.5L0 906Z" fill="#bb004d"></path></svg>